<?xml version="1.0" encoding="utf-8"?>
<!-- Generator: Adobe Illustrator 22.0.1, SVG Export Plug-In . SVG Version: 6.00 Build 0)  -->
<svg version="1.1" id="图层_1" xmlns="http://www.w3.org/2000/svg" xmlns:xlink="http://www.w3.org/1999/xlink" x="0px" y="0px"
	 viewBox="0 0 12 14" style="enable-background:new 0 0 12 14;" xml:space="preserve">
<style type="text/css">
	.st0{fill:#4175FA;}
</style>
<title>Icon Copy 3</title>
<desc>Created with Sketch.</desc>
<path id="path-1_1_" class="st0" d="M10.7,1.3H7.9C7.6,0.6,6.9,0,6,0S4.4,0.6,4.1,1.3H1.3C0.6,1.3,0,1.9,0,2.7V12
	c0,0.7,0.6,1.3,1.3,1.3h9.3c0.7,0,1.3-0.6,1.3-1.3V2.7C12,1.9,11.4,1.3,10.7,1.3L10.7,1.3z M6,1.3c0.4,0,0.7,0.3,0.7,0.7
	S6.4,2.7,6,2.7S5.3,2.4,5.3,2S5.6,1.3,6,1.3L6,1.3z M4.7,10.7L2,8l0.9-0.9l1.7,1.7l4.4-4.4L10,5.3L4.7,10.7L4.7,10.7z"/>
</svg>
